<svg xmlns="http://www.w3.org/2000/svg" data-name="Layer 1" width="1144" height="617.3200073242188"><rect id="backgroundrect" width="100%" height="100%" x="0" y="0" fill="none" stroke="none"/><title>developer activity</title><g class="currentLayer" style=""><title>Layer 1</title><path d="M1144,396.2300036621094 a181.92,181.92 0 0 1 -6.85,49.6 a180.06,180.06 0 0 1 -19.27,44.28 c0,50.1 -33.82,93.4 -82.91,114 a167.3,167.3 0 0 1 -64.73,12.8 H217.17 c-40.25,0 -77.55,-10.86 -108.14,-29.36 A185.76,185.76 0 0 1 84.2,569.6600036621094 c-34,-29.22 -55.08,-69.6 -55.08,-114.2 A180.5,180.5 0 0 1 0,356.74000366210936 c0,-73.36 43.39,-136.44 105.55,-164.29 a174.52,174.52 0 0 1 25.51,-9.12 q4.63,-1.26 9.36,-2.26 a175.39,175.39 0 0 1 25.51,-3.5 q4.65,-0.29000000000000004 9.35,-0.33000000000000007 H177 c3.46,0 6.890000000000001,0.12000000000000001 10.3,0.32000000000000006 l1.12,-1.9 q2.06,-3.44 4.22,-6.8100000000000005 q3.9,-6.14 8.18,-12.1 q4.48,-6.29 9.35,-12.38 l0.8300000000000001,-1 q2.7600000000000002,-3.44 5.640000000000001,-6.8 q9,-10.49 19,-20.35 c72.11,-70.68 185.08,-116.18 312.08,-116.18 c98.82,0 189.15,27.55 258.34,73.07 A174.18,174.18 0 0 1 892,50.52000366210939 c97.74,0 177,80.37 177,179.51 a184.9,184.9 0 0 1 -1,18.78 A180,180 0 0 1 1144,396.2300036621094 z" fill="#919191" opacity="0.1" id="svg_1" class="" fill-opacity="1"/><path d="M235.66000000000003,116.18000366210936 v20.35 h-19 Q225.59,126.05000366210936 235.66000000000003,116.18000366210936 z" fill="#6d6d6d" opacity="0.2" id="svg_2" class="" fill-opacity="1"/><rect x="245.02000427246094" y="111.0199966430664" width="25.510000228881836" height="25.510000228881836" fill="#6d6d6d" opacity="0.2" id="svg_3" class="" fill-opacity="1"/><rect x="279.8800048828125" y="111.0199966430664" width="25.510000228881836" height="25.510000228881836" fill="#6d6d6d" opacity="0.2" id="svg_4" class="" fill-opacity="1"/><rect x="314.75" y="111.0199966430664" width="25.510000228881836" height="25.510000228881836" fill="#6d6d6d" opacity="0.2" id="svg_5" class="" fill-opacity="1"/><rect x="349.6099853515625" y="111.0199966430664" width="25.510000228881836" height="25.510000228881836" fill="#6d6d6d" opacity="0.2" id="svg_6" class="" fill-opacity="1"/><rect x="384.4800109863281" y="111.0199966430664" width="25.510000228881836" height="25.510000228881836" fill="#6d6d6d" opacity="0.2" id="svg_7" class="" fill-opacity="1"/><rect x="419.3500061035156" y="111.0199966430664" width="25.510000228881836" height="25.510000228881836" fill="#000000" id="svg_8" class="" fill-opacity="1"/><rect x="454.2099914550781" y="111.0199966430664" width="25.510000228881836" height="25.510000228881836" fill="#6d6d6d" opacity="0.2" id="svg_9" class="" fill-opacity="1"/><rect x="489.0799865722656" y="111.0199966430664" width="25.510000228881836" height="25.510000228881836" fill="#6d6d6d" opacity="0.2" id="svg_10" class="" fill-opacity="1"/><rect x="523.9400024414062" y="111.0199966430664" width="25.510000228881836" height="25.510000228881836" fill="#6d6d6d" opacity="0.2" id="svg_11" class="" fill-opacity="1"/><rect x="558.8099975585938" y="111.0199966430664" width="25.510000228881836" height="25.510000228881836" fill="#000000" id="svg_12" class="" fill-opacity="1"/><rect x="593.6799926757812" y="111.0199966430664" width="25.510000228881836" height="25.510000228881836" fill="#6d6d6d" opacity="0.2" id="svg_13" class="" fill-opacity="1"/><rect x="628.5399780273438" y="111.0199966430664" width="25.510000228881836" height="25.510000228881836" fill="#6d6d6d" opacity="0.2" id="svg_14" class="" fill-opacity="1"/><rect x="663.4099731445312" y="111.0199966430664" width="25.510000228881836" height="25.510000228881836" fill="#6d6d6d" opacity="0.2" id="svg_15" class="" fill-opacity="1"/><rect x="698.280029296875" y="111.0199966430664" width="25.510000228881836" height="25.510000228881836" fill="#6d6d6d" opacity="0.2" id="svg_16" class="" fill-opacity="1"/><rect x="733.1400146484375" y="111.0199966430664" width="25.510000228881836" height="25.510000228881836" fill="#484848" opacity="0.2" id="svg_17" class="" fill-opacity="1"/><rect x="768.010009765625" y="111.0199966430664" width="25.510000228881836" height="25.510000228881836" fill="#6d6d6d" opacity="0.2" id="svg_18" class="" fill-opacity="1"/><rect x="802.8699951171875" y="111.0199966430664" width="25.510000228881836" height="25.510000228881836" fill="#000000" id="svg_19" class="" fill-opacity="1"/><rect x="837.739990234375" y="111.0199966430664" width="25.510000228881836" height="25.510000228881836" fill="#000000" id="svg_20" class="" fill-opacity="1"/><rect x="872.6099853515625" y="111.0199966430664" width="25.510000228881836" height="25.510000228881836" fill="#6d6d6d" opacity="0.2" id="svg_21" class="" fill-opacity="1"/><rect x="907.469970703125" y="111.0199966430664" width="25.510000228881836" height="25.510000228881836" fill="#6d6d6d" opacity="0.2" id="svg_22" class="" fill-opacity="1"/><rect x="942.3400268554688" y="111.0199966430664" width="25.510000228881836" height="25.510000228881836" fill="#000000" id="svg_23" class="" fill-opacity="1"/><rect x="977.2000122070312" y="111.0199966430664" width="25.510000228881836" height="25.510000228881836" fill="#000000" id="svg_24" class="" fill-opacity="1"/><path d="M200.8,156.74000366210936 v12.1 h-8.18 Q196.52,162.66000366210938 200.8,156.74000366210936 z" fill="#000000" id="svg_25" class="" fill-opacity="1"/><rect x="210.14999389648438" y="143.3300018310547" width="25.510000228881836" height="25.510000228881836" fill="#6d6d6d" opacity="0.2" id="svg_26" class="" fill-opacity="1"/><rect x="245.02000427246094" y="143.3300018310547" width="25.510000228881836" height="25.510000228881836" fill="#000000" id="svg_27" class="" fill-opacity="1"/><rect x="279.8800048828125" y="143.3300018310547" width="25.510000228881836" height="25.510000228881836" fill="#6d6d6d" opacity="0.2" id="svg_28" class="" fill-opacity="1"/><rect x="314.75" y="143.3300018310547" width="25.510000228881836" height="25.510000228881836" fill="#242424" opacity="0.7" id="svg_29" class="" fill-opacity="1"/><rect x="349.6099853515625" y="143.3300018310547" width="25.510000228881836" height="25.510000228881836" fill="#6d6d6d" opacity="0.2" id="svg_30" class="" fill-opacity="1"/><rect x="384.4800109863281" y="143.3300018310547" width="25.510000228881836" height="25.510000228881836" fill="#484848" opacity="0.4" id="svg_31" class="" fill-opacity="1"/><rect x="419.3500061035156" y="143.3300018310547" width="25.510000228881836" height="25.510000228881836" fill="#000000" id="svg_32" class="" fill-opacity="1"/><rect x="454.2099914550781" y="143.3300018310547" width="25.510000228881836" height="25.510000228881836" fill="#484848" opacity="0.4" id="svg_33" class="" fill-opacity="1"/><rect x="489.0799865722656" y="143.3300018310547" width="25.510000228881836" height="25.510000228881836" fill="#6d6d6d" opacity="0.2" id="svg_34" class="" fill-opacity="1"/><rect x="523.9400024414062" y="143.3300018310547" width="25.510000228881836" height="25.510000228881836" fill="#484848" opacity="0.4" id="svg_35" class="" fill-opacity="1"/><rect x="558.8099975585938" y="143.3300018310547" width="25.510000228881836" height="25.510000228881836" fill="#000000" id="svg_36" class="" fill-opacity="1"/><rect x="593.6799926757812" y="143.3300018310547" width="25.510000228881836" height="25.510000228881836" fill="#484848" opacity="0.4" id="svg_37" class="" fill-opacity="1"/><rect x="628.5399780273438" y="143.3300018310547" width="25.510000228881836" height="25.510000228881836" fill="#484848" opacity="0.4" id="svg_38" class="" fill-opacity="1"/><rect x="663.4099731445312" y="143.3300018310547" width="25.510000228881836" height="25.510000228881836" fill="#6d6d6d" opacity="0.2" id="svg_39" class="" fill-opacity="1"/><rect x="698.280029296875" y="143.3300018310547" width="25.510000228881836" height="25.510000228881836" fill="#484848" opacity="0.4" id="svg_40" class="" fill-opacity="1"/><rect x="733.1400146484375" y="143.3300018310547" width="25.510000228881836" height="25.510000228881836" fill="#484848" opacity="0.4" id="svg_41" class="" fill-opacity="1"/><rect x="768.010009765625" y="143.3300018310547" width="25.510000228881836" height="25.510000228881836" fill="#6d6d6d" opacity="0.2" id="svg_42" class="" fill-opacity="1"/><rect x="802.8699951171875" y="143.3300018310547" width="25.510000228881836" height="25.510000228881836" fill="#6d6d6d" opacity="0.2" id="svg_43" class="" fill-opacity="1"/><rect x="837.739990234375" y="143.3300018310547" width="25.510000228881836" height="25.510000228881836" fill="#484848" opacity="0.4" id="svg_44" class="" fill-opacity="1"/><rect x="872.6099853515625" y="143.3300018310547" width="25.510000228881836" height="25.510000228881836" fill="#6d6d6d" opacity="0.2" id="svg_45" class="" fill-opacity="1"/><rect x="907.469970703125" y="143.3300018310547" width="25.510000228881836" height="25.510000228881836" fill="#000000" id="svg_46" class="" fill-opacity="1"/><rect x="942.3400268554688" y="143.3300018310547" width="25.510000228881836" height="25.510000228881836" fill="#000000" id="svg_47" class="" fill-opacity="1"/><rect x="977.2000122070312" y="143.3300018310547" width="25.510000228881836" height="25.510000228881836" fill="#000000" id="svg_48" class="" fill-opacity="1"/><path d="M131.06,183.3300036621094 V201.16000366210938 H105.55000000000001 v-8.71 A174.52,174.52 0 0 1 131.06,183.3300036621094 z" fill="#6d6d6d" opacity="0.2" id="svg_49" class="" fill-opacity="1"/><polygon points="165.93 177.57 165.93 201.16 140.42 201.16 140.42 181.07 165.93 177.57" fill="#6d6d6d" opacity="0.2" id="svg_50" class="" fill-opacity="1"/><rect x="175.27999877929688" y="175.64999389648438" width="25.510000228881836" height="25.510000228881836" fill="#000000" id="svg_51" class="" fill-opacity="1"/><rect x="210.14999389648438" y="175.64999389648438" width="25.510000228881836" height="25.510000228881836" fill="#242424" opacity="0.7" id="svg_52" class="" fill-opacity="1"/><rect x="245.02000427246094" y="175.64999389648438" width="25.510000228881836" height="25.510000228881836" fill="#000000" id="svg_53" class="" fill-opacity="1"/><rect x="279.8800048828125" y="175.64999389648438" width="25.510000228881836" height="25.510000228881836" fill="#242424" opacity="0.7" id="svg_54" class="" fill-opacity="1"/><rect x="314.75" y="175.64999389648438" width="25.510000228881836" height="25.510000228881836" fill="#242424" opacity="0.7" id="svg_55" class="" fill-opacity="1"/><rect x="349.6099853515625" y="175.64999389648438" width="25.510000228881836" height="25.510000228881836" fill="#6d6d6d" opacity="0.2" id="svg_56" class="" fill-opacity="1"/><rect x="384.4800109863281" y="175.64999389648438" width="25.510000228881836" height="25.510000228881836" fill="#484848" opacity="0.4" id="svg_57" class="" fill-opacity="1"/><rect x="419.3500061035156" y="175.64999389648438" width="25.510000228881836" height="25.510000228881836" fill="#484848" opacity="0.4" id="svg_58" class="" fill-opacity="1"/><rect x="454.2099914550781" y="175.64999389648438" width="25.510000228881836" height="25.510000228881836" fill="#000000" id="svg_59" class="" fill-opacity="1"/><rect x="489.0799865722656" y="175.64999389648438" width="25.510000228881836" height="25.510000228881836" fill="#6d6d6d" opacity="0.2" id="svg_60" class="" fill-opacity="1"/><rect x="523.9400024414062" y="175.64999389648438" width="25.510000228881836" height="25.510000228881836" fill="#484848" opacity="0.4" id="svg_61" class="" fill-opacity="1"/><rect x="558.8099975585938" y="175.64999389648438" width="25.510000228881836" height="25.510000228881836" fill="#000000" id="svg_62" class="" fill-opacity="1"/><rect x="593.6799926757812" y="175.64999389648438" width="25.510000228881836" height="25.510000228881836" fill="#6d6d6d" opacity="0.2" id="svg_63" class="" fill-opacity="1"/><rect x="628.5399780273438" y="175.64999389648438" width="25.510000228881836" height="25.510000228881836" fill="#484848" opacity="0.4" id="svg_64" class="" fill-opacity="1"/><rect x="663.4099731445312" y="175.64999389648438" width="25.510000228881836" height="25.510000228881836" fill="#6c63ff" opacity="0.2" id="svg_65"/><rect x="698.280029296875" y="175.64999389648438" width="25.510000228881836" height="25.510000228881836" fill="#6c63ff" id="svg_66"/><rect x="733.1400146484375" y="175.64999389648438" width="25.510000228881836" height="25.510000228881836" fill="#6c63ff" opacity="0.2" id="svg_67"/><rect x="768.010009765625" y="175.64999389648438" width="25.510000228881836" height="25.510000228881836" fill="#6c63ff" opacity="0.7" id="svg_68"/><rect x="802.8699951171875" y="175.64999389648438" width="25.510000228881836" height="25.510000228881836" fill="#242424" opacity="0.7" id="svg_69" class="" fill-opacity="1"/><rect x="837.739990234375" y="175.64999389648438" width="25.510000228881836" height="25.510000228881836" fill="#484848" opacity="0.4" id="svg_70" class="" fill-opacity="1"/><rect x="872.6099853515625" y="175.64999389648438" width="25.510000228881836" height="25.510000228881836" fill="#6d6d6d" opacity="0.2" id="svg_71" class="" fill-opacity="1"/><rect x="907.469970703125" y="175.64999389648438" width="25.510000228881836" height="25.510000228881836" fill="#000000" id="svg_72" class="" fill-opacity="1"/><rect x="942.3400268554688" y="175.64999389648438" width="25.510000228881836" height="25.510000228881836" fill="#000000" id="svg_73" class="" fill-opacity="1"/><rect x="977.2000122070312" y="175.64999389648438" width="25.510000228881836" height="25.510000228881836" fill="#000000" id="svg_74" class="" fill-opacity="1"/><rect x="105.55000305175781" y="207.9600067138672" width="25.510000228881836" height="25.510000228881836" fill="#6d6d6d" opacity="0.2" id="svg_75" class="" fill-opacity="1"/><rect x="140.4199981689453" y="207.9600067138672" width="25.510000228881836" height="25.510000228881836" fill="#6d6d6d" opacity="0.2" id="svg_76" class="" fill-opacity="1"/><rect x="175.27999877929688" y="207.9600067138672" width="25.510000228881836" height="25.510000228881836" fill="#6d6d6d" opacity="0.2" id="svg_77" class="" fill-opacity="1"/><rect x="210.14999389648438" y="207.9600067138672" width="25.510000228881836" height="25.510000228881836" fill="#6d6d6d" opacity="0.2" id="svg_78" class="" fill-opacity="1"/><rect x="245.02000427246094" y="207.9600067138672" width="25.510000228881836" height="25.510000228881836" fill="#000000" id="svg_79" class="" fill-opacity="1"/><rect x="279.8800048828125" y="207.9600067138672" width="25.510000228881836" height="25.510000228881836" fill="#242424" opacity="0.7" id="svg_80" class="" fill-opacity="1"/><rect x="314.75" y="207.9600067138672" width="25.510000228881836" height="25.510000228881836" fill="#242424" opacity="0.7" id="svg_81" class="" fill-opacity="1"/><rect x="349.6099853515625" y="207.9600067138672" width="25.510000228881836" height="25.510000228881836" fill="#6d6d6d" opacity="0.2" id="svg_82" class="" fill-opacity="1"/><rect x="384.4800109863281" y="207.9600067138672" width="25.510000228881836" height="25.510000228881836" fill="#6d6d6d" opacity="0.2" id="svg_83" class="" fill-opacity="1"/><rect x="419.3500061035156" y="207.9600067138672" width="25.510000228881836" height="25.510000228881836" fill="#484848" opacity="0.4" id="svg_84" class="" fill-opacity="1"/><rect x="454.2099914550781" y="207.9600067138672" width="25.510000228881836" height="25.510000228881836" fill="#484848" opacity="0.4" id="svg_85" class="" fill-opacity="1"/><rect x="489.0799865722656" y="207.9600067138672" width="25.510000228881836" height="25.510000228881836" fill="#000000" id="svg_86" class="" fill-opacity="1"/><rect x="523.9400024414062" y="207.9600067138672" width="25.510000228881836" height="25.510000228881836" fill="#6d6d6d" opacity="0.2" id="svg_87" class="" fill-opacity="1"/><rect x="558.8099975585938" y="207.9600067138672" width="25.510000228881836" height="25.510000228881836" fill="#484848" opacity="0.4" id="svg_88" class="" fill-opacity="1"/><rect x="593.6799926757812" y="207.9600067138672" width="25.510000228881836" height="25.510000228881836" fill="#484848" opacity="0.4" id="svg_89" class="" fill-opacity="1"/><rect x="628.5399780273438" y="207.9600067138672" width="25.510000228881836" height="25.510000228881836" fill="#484848" opacity="0.4" id="svg_90" class="" fill-opacity="1"/><rect x="663.4099731445312" y="207.9600067138672" width="25.510000228881836" height="25.510000228881836" fill="#6c63ff" opacity="0.4" id="svg_91"/><rect x="698.280029296875" y="207.9600067138672" width="25.510000228881836" height="25.510000228881836" fill="#6c63ff" opacity="0.2" id="svg_92"/><rect x="733.1400146484375" y="207.9600067138672" width="25.510000228881836" height="25.510000228881836" fill="#6c63ff" opacity="0.2" id="svg_93"/><rect x="768.010009765625" y="207.9600067138672" width="25.510000228881836" height="25.510000228881836" fill="#6c63ff" opacity="0.2" id="svg_94"/><rect x="802.8699951171875" y="207.9600067138672" width="25.510000228881836" height="25.510000228881836" fill="#6d6d6d" opacity="0.2" id="svg_95" class="" fill-opacity="1"/><rect x="837.739990234375" y="207.9600067138672" width="25.510000228881836" height="25.510000228881836" fill="#242424" opacity="0.7" id="svg_96" class="" fill-opacity="1"/><rect x="872.6099853515625" y="207.9600067138672" width="25.510000228881836" height="25.510000228881836" fill="#242424" opacity="0.7" id="svg_97" class="" fill-opacity="1"/><rect x="907.469970703125" y="207.9600067138672" width="25.510000228881836" height="25.510000228881836" fill="#484848" opacity="0.4" id="svg_98" class="" fill-opacity="1"/><rect x="942.3400268554688" y="207.9600067138672" width="25.510000228881836" height="25.510000228881836" fill="#6d6d6d" opacity="0.2" id="svg_99" class="" fill-opacity="1"/><rect x="977.2000122070312" y="207.9600067138672" width="25.510000228881836" height="25.510000228881836" fill="#000000" id="svg_100" class="" fill-opacity="1"/><rect x="105.55000305175781" y="240.27999877929688" width="25.510000228881836" height="25.510000228881836" fill="#6d6d6d" opacity="0.2" id="svg_101" class="" fill-opacity="1"/><rect x="140.4199981689453" y="240.27999877929688" width="25.510000228881836" height="25.510000228881836" fill="#6d6d6d" opacity="0.2" id="svg_102" class="" fill-opacity="1"/><rect x="175.27999877929688" y="240.27999877929688" width="25.510000228881836" height="25.510000228881836" fill="#484848" opacity="0.4" id="svg_103" class="" fill-opacity="1"/><rect x="210.14999389648438" y="240.27999877929688" width="25.510000228881836" height="25.510000228881836" fill="#6d6d6d" opacity="0.2" id="svg_104" class="" fill-opacity="1"/><rect x="245.02000427246094" y="240.27999877929688" width="25.510000228881836" height="25.510000228881836" fill="#6d6d6d" opacity="0.2" id="svg_105" class="" fill-opacity="1"/><rect x="279.8800048828125" y="240.27999877929688" width="25.510000228881836" height="25.510000228881836" fill="#242424" opacity="0.7" id="svg_106" class="" fill-opacity="1"/><rect x="314.75" y="240.27999877929688" width="25.510000228881836" height="25.510000228881836" fill="#242424" opacity="0.7" id="svg_107" class="" fill-opacity="1"/><rect x="349.6099853515625" y="240.27999877929688" width="25.510000228881836" height="25.510000228881836" fill="#6d6d6d" opacity="0.2" id="svg_108" class="" fill-opacity="1"/><rect x="384.4800109863281" y="240.27999877929688" width="25.510000228881836" height="25.510000228881836" fill="#6d6d6d" opacity="0.2" id="svg_109" class="" fill-opacity="1"/><rect x="419.3500061035156" y="240.27999877929688" width="25.510000228881836" height="25.510000228881836" fill="#484848" opacity="0.4" id="svg_110" class="" fill-opacity="1"/><rect x="454.2099914550781" y="240.27999877929688" width="25.510000228881836" height="25.510000228881836" fill="#000000" id="svg_111" class="" fill-opacity="1"/><rect x="489.0799865722656" y="240.27999877929688" width="25.510000228881836" height="25.510000228881836" fill="#6d6d6d" opacity="0.2" id="svg_112" class="" fill-opacity="1"/><rect x="523.9400024414062" y="240.27999877929688" width="25.510000228881836" height="25.510000228881836" fill="#000000" id="svg_113" class="" fill-opacity="1"/><rect x="558.8099975585938" y="240.27999877929688" width="25.510000228881836" height="25.510000228881836" fill="#000000" id="svg_114" class="" fill-opacity="1"/><rect x="593.6799926757812" y="240.27999877929688" width="25.510000228881836" height="25.510000228881836" fill="#000000" id="svg_115" class="" fill-opacity="1"/><rect x="628.5399780273438" y="240.27999877929688" width="25.510000228881836" height="25.510000228881836" fill="#6c63ff" opacity="0.2" id="svg_116"/><rect x="663.4099731445312" y="240.27999877929688" width="25.510000228881836" height="25.510000228881836" fill="#6c63ff" id="svg_117"/><rect x="698.280029296875" y="240.27999877929688" width="25.510000228881836" height="25.510000228881836" fill="#6c63ff" opacity="0.2" id="svg_118"/><rect x="733.1400146484375" y="240.27999877929688" width="25.510000228881836" height="25.510000228881836" fill="#6c63ff" opacity="0.2" id="svg_119"/><rect x="768.010009765625" y="240.27999877929688" width="25.510000228881836" height="25.510000228881836" fill="#6c63ff" opacity="0.2" id="svg_120"/><rect x="802.8699951171875" y="240.27999877929688" width="25.510000228881836" height="25.510000228881836" fill="#6d6d6d" opacity="0.2" id="svg_121" class="" fill-opacity="1"/><rect x="837.739990234375" y="240.27999877929688" width="25.510000228881836" height="25.510000228881836" fill="#6d6d6d" opacity="0.2" id="svg_122" class="" fill-opacity="1"/><rect x="872.6099853515625" y="240.27999877929688" width="25.510000228881836" height="25.510000228881836" fill="#242424" opacity="0.7" id="svg_123" class="" fill-opacity="1"/><rect x="907.469970703125" y="240.27999877929688" width="25.510000228881836" height="25.510000228881836" fill="#6d6d6d" opacity="0.2" id="svg_124" class="" fill-opacity="1"/><rect x="942.3400268554688" y="240.27999877929688" width="25.510000228881836" height="25.510000228881836" fill="#919191" opacity="0.2" id="svg_125" class="" fill-opacity="1"/><rect x="977.2000122070312" y="240.27999877929688" width="25.510000228881836" height="25.510000228881836" fill="#000000" id="svg_126" class="" fill-opacity="1"/><rect x="105.55000305175781" y="272.5899963378906" width="25.510000228881836" height="25.510000228881836" fill="#6d6d6d" opacity="0.2" id="svg_127" class="" fill-opacity="1"/><rect x="140.4199981689453" y="272.5899963378906" width="25.510000228881836" height="25.510000228881836" fill="#6d6d6d" opacity="0.2" id="svg_128" class="" fill-opacity="1"/><rect x="175.27999877929688" y="272.5899963378906" width="25.510000228881836" height="25.510000228881836" fill="#6d6d6d" opacity="0.2" id="svg_129" class="" fill-opacity="1"/><rect x="210.14999389648438" y="272.5899963378906" width="25.510000228881836" height="25.510000228881836" fill="#484848" opacity="0.4" id="svg_130" class="" fill-opacity="1"/><rect x="245.02000427246094" y="272.5899963378906" width="25.510000228881836" height="25.510000228881836" fill="#6d6d6d" opacity="0.2" id="svg_131" class="" fill-opacity="1"/><rect x="279.8800048828125" y="272.5899963378906" width="25.510000228881836" height="25.510000228881836" fill="#6d6d6d" opacity="0.2" id="svg_132" class="" fill-opacity="1"/><rect x="314.75" y="272.5899963378906" width="25.510000228881836" height="25.510000228881836" fill="#242424" opacity="0.7" id="svg_133" class="" fill-opacity="1"/><rect x="349.6099853515625" y="272.5899963378906" width="25.510000228881836" height="25.510000228881836" fill="#6d6d6d" opacity="0.2" id="svg_134" class="" fill-opacity="1"/><rect x="384.4800109863281" y="272.5899963378906" width="25.510000228881836" height="25.510000228881836" fill="#6d6d6d" opacity="0.2" id="svg_135" class="" fill-opacity="1"/><rect x="419.3500061035156" y="272.5899963378906" width="25.510000228881836" height="25.510000228881836" fill="#6d6d6d" opacity="0.2" id="svg_136" class="" fill-opacity="1"/><rect x="454.2099914550781" y="272.5899963378906" width="25.510000228881836" height="25.510000228881836" fill="#000000" id="svg_137" class="" fill-opacity="1"/><rect x="489.0799865722656" y="272.5899963378906" width="25.510000228881836" height="25.510000228881836" fill="#6d6d6d" opacity="0.2" id="svg_138" class="" fill-opacity="1"/><rect x="523.9400024414062" y="272.5899963378906" width="25.510000228881836" height="25.510000228881836" fill="#000000" id="svg_139" class="" fill-opacity="1"/><rect x="558.8099975585938" y="272.5899963378906" width="25.510000228881836" height="25.510000228881836" fill="#000000" id="svg_140" class="" fill-opacity="1"/><rect x="593.6799926757812" y="272.5899963378906" width="25.510000228881836" height="25.510000228881836" fill="#6d6d6d" opacity="0.2" id="svg_141" class="" fill-opacity="1"/><rect x="628.5399780273438" y="272.5899963378906" width="25.510000228881836" height="25.510000228881836" fill="#6d6d6d" opacity="0.2" id="svg_142" class="" fill-opacity="1"/><rect x="663.4099731445312" y="272.5899963378906" width="25.510000228881836" height="25.510000228881836" fill="#6c63ff" opacity="0.2" id="svg_143"/><rect x="698.280029296875" y="272.5899963378906" width="25.510000228881836" height="25.510000228881836" fill="#6c63ff" opacity="0.2" id="svg_144"/><rect x="733.1400146484375" y="272.5899963378906" width="25.510000228881836" height="25.510000228881836" fill="#6c63ff" opacity="0.2" id="svg_145"/><rect x="768.010009765625" y="272.5899963378906" width="25.510000228881836" height="25.510000228881836" fill="#6c63ff" opacity="0.2" id="svg_146"/><rect x="802.8699951171875" y="272.5899963378906" width="25.510000228881836" height="25.510000228881836" fill="#6d6d6d" opacity="0.2" id="svg_147" class="" fill-opacity="1"/><rect x="837.739990234375" y="272.5899963378906" width="25.510000228881836" height="25.510000228881836" fill="#6d6d6d" opacity="0.2" id="svg_148" class="" fill-opacity="1"/><rect x="872.6099853515625" y="272.5899963378906" width="25.510000228881836" height="25.510000228881836" fill="#6d6d6d" opacity="0.2" id="svg_149" class="" fill-opacity="1"/><rect x="907.469970703125" y="272.5899963378906" width="25.510000228881836" height="25.510000228881836" fill="#6d6d6d" opacity="0.2" id="svg_150" class="" fill-opacity="1"/><rect x="942.3400268554688" y="272.5899963378906" width="25.510000228881836" height="25.510000228881836" fill="#484848" opacity="0.4" id="svg_151" class="" fill-opacity="1"/><rect x="977.2000122070312" y="272.5899963378906" width="25.510000228881836" height="25.510000228881836" fill="#000000" id="svg_152" class="" fill-opacity="1"/><rect x="105.55000305175781" y="304.9100036621094" width="25.510000228881836" height="25.510000228881836" fill="#242424" opacity="0.7" id="svg_153" class="" fill-opacity="1"/><rect x="140.4199981689453" y="304.9100036621094" width="25.510000228881836" height="25.510000228881836" fill="#242424" opacity="0.7" id="svg_154" class="" fill-opacity="1"/><rect x="175.27999877929688" y="304.9100036621094" width="25.510000228881836" height="25.510000228881836" fill="#242424" opacity="0.7" id="svg_155" class="" fill-opacity="1"/><rect x="210.14999389648438" y="304.9100036621094" width="25.510000228881836" height="25.510000228881836" fill="#242424" opacity="0.7" id="svg_156" class="" fill-opacity="1"/><rect x="245.02000427246094" y="304.9100036621094" width="25.510000228881836" height="25.510000228881836" fill="#242424" opacity="0.7" id="svg_157" class="" fill-opacity="1"/><rect x="279.8800048828125" y="304.9100036621094" width="25.510000228881836" height="25.510000228881836" fill="#6d6d6d" opacity="0.2" id="svg_158" class="" fill-opacity="1"/><rect x="314.75" y="304.9100036621094" width="25.510000228881836" height="25.510000228881836" fill="#6d6d6d" opacity="0.2" id="svg_159" class="" fill-opacity="1"/><rect x="349.6099853515625" y="304.9100036621094" width="25.510000228881836" height="25.510000228881836" fill="#6d6d6d" opacity="0.2" id="svg_160" class="" fill-opacity="1"/><rect x="384.4800109863281" y="304.9100036621094" width="25.510000228881836" height="25.510000228881836" fill="#6d6d6d" opacity="0.2" id="svg_161" class="" fill-opacity="1"/><rect x="419.3500061035156" y="304.9100036621094" width="25.510000228881836" height="25.510000228881836" fill="#6d6d6d" opacity="0.2" id="svg_162" class="" fill-opacity="1"/><rect x="454.2099914550781" y="304.9100036621094" width="25.510000228881836" height="25.510000228881836" fill="#6d6d6d" opacity="0.2" id="svg_163" class="" fill-opacity="1"/><rect x="489.0799865722656" y="304.9100036621094" width="25.510000228881836" height="25.510000228881836" fill="#000000" id="svg_164" class="" fill-opacity="1"/><rect x="523.9400024414062" y="304.9100036621094" width="25.510000228881836" height="25.510000228881836" fill="#6d6d6d" opacity="0.2" id="svg_165" class="" fill-opacity="1"/><rect x="558.8099975585938" y="304.9100036621094" width="25.510000228881836" height="25.510000228881836" fill="#6d6d6d" opacity="0.2" id="svg_166" class="" fill-opacity="1"/><rect x="593.6799926757812" y="304.9100036621094" width="25.510000228881836" height="25.510000228881836" fill="#6d6d6d" opacity="0.2" id="svg_167" class="" fill-opacity="1"/><rect x="628.5399780273438" y="304.9100036621094" width="25.510000228881836" height="25.510000228881836" fill="#000000" id="svg_168" class="" fill-opacity="1"/><rect x="663.4099731445312" y="304.9100036621094" width="25.510000228881836" height="25.510000228881836" fill="#6d6d6d" opacity="0.2" id="svg_169" class="" fill-opacity="1"/><rect x="698.280029296875" y="304.9100036621094" width="25.510000228881836" height="25.510000228881836" fill="#6c63ff" opacity="0.2" id="svg_170"/><rect x="733.1400146484375" y="304.9100036621094" width="25.510000228881836" height="25.510000228881836" fill="#6c63ff" opacity="0.2" id="svg_171"/><rect x="768.010009765625" y="304.9100036621094" width="25.510000228881836" height="25.510000228881836" fill="#6c63ff" opacity="0.2" id="svg_172"/><rect x="802.8699951171875" y="304.9100036621094" width="25.510000228881836" height="25.510000228881836" fill="#6c63ff" opacity="0.2" id="svg_173"/><rect x="837.739990234375" y="304.9100036621094" width="25.510000228881836" height="25.510000228881836" fill="#6d6d6d" opacity="0.2" id="svg_174" class="" fill-opacity="1"/><rect x="872.6099853515625" y="304.9100036621094" width="25.510000228881836" height="25.510000228881836" fill="#6d6d6d" opacity="0.2" id="svg_175" class="" fill-opacity="1"/><rect x="907.469970703125" y="304.9100036621094" width="25.510000228881836" height="25.510000228881836" fill="#6d6d6d" opacity="0.2" id="svg_176" class="" fill-opacity="1"/><rect x="942.3400268554688" y="304.9100036621094" width="25.510000228881836" height="25.510000228881836" fill="#6d6d6d" opacity="0.2" id="svg_177" class="" fill-opacity="1"/><rect x="977.2000122070312" y="304.9100036621094" width="25.510000228881836" height="25.510000228881836" fill="#000000" id="svg_178" class="" fill-opacity="1"/><circle cx="734.52001953125" cy="363.8900146484375" r="34.869998931884766" fill="#767d9f" id="svg_179"/><path d="M732.71,319.5300036621094 q5.22,22.78 8.86,45.9 c0.7300000000000001,4.58 1.3800000000000001,9.41 -0.28,13.74 c-1.3900000000000001,3.6100000000000003 -4.22,6.43 -6.44,9.59 s-3.9,7.21 -2.55,10.83 s5.29,5.6 9.05,6.62 c10.76,2.9 22.23,0.79 32.94,-2.35 a53.29,53.29 0 0 0 13.81,-5.72 c4.54,-2.88 8.26,-6.88 11.68,-11 c15.61,-18.93 25.83,-41.65 35.45,-64.23 a39.12,39.12 0 0 1 -33.11,-13.34 c-3.94,-4.63 -6.83,-11.08 -4.61,-16.74 c-6.51,3.5700000000000003 -14.24,3.81 -21.25,6.25 a75.49,75.49 0 0 0 -12.5,6.15 q-7.18,4.15 -14.28,8.46 C744.07,316.9500036621094 739,319.8500036621094 732.71,319.5300036621094 z" fill="#ae6e79" id="svg_180"/><path d="M805.64,345.7100036621094 c-6.11,11.89 -14.06,23.32 -25.41,30.4 s-26.63,9 -38,2 c-5.6,-3.42 -9.84,-8.620000000000001 -14.73,-13 s-11,-8.13 -17.57,-7.5600000000000005 c-7.24,0.6300000000000001 -12.91,6.28 -17.76,11.69 c-7.36,8.22 -14.47,16.79 -19.68,26.52 c-10,18.7 -12.37,40.56 -11.93,61.76 s3.51,42.29 3.58,63.49 c0.1,26.08 -4.32,51.95 -8.79,77.64 c41.1,-5.06 82.25,6 123.44,10.19 c26.36,2.71 52.92,2.6500000000000004 79.42,2.58 c4.66,0 9.620000000000001,-0.12000000000000001 13.5,-2.7 a18.2,18.2 0 0 0 5.59,-6.640000000000001 c3.66,-6.75 5.13,-14.45 6.15,-22.06 c2.59,-19.22 2.67,-38.68 2.74,-58.08 c0.18000000000000002,-47 0.35000000000000003,-94.17 -5.62,-140.8 c-1.47,-11.47 -3.35,-23 -7.75,-33.73 s-11.58,-20.6 -21.62,-26.35 c-6.45,-3.7 -21.4,-10.14 -29,-6.41 C813.67,318.81000366210935 809.73,337.75000366210935 805.64,345.7100036621094 z" fill="#dadada" id="svg_181" class="" fill-opacity="1"/><path d="M808.68,478.43000366210936 c-1.55,-29 -7.86,-59.95 5.57,-85.69 c3.3,-6.32 -8.54,-14.21 -4.88,-20.33 a92.08,92.08 0 0 0 10.06,-23.93 c0.7600000000000001,-2.89 1.37,-5.95 0.6500000000000001,-8.85 c-1.33,-5.29 -6.5600000000000005,-8.44 -11,-11.66 c-4.9,-3.56 -7.42,-14.41 -9,-20.28 s12.57,1.2 18.26,-0.8900000000000001 c7.9,-2.89 17.94,-1.07 25.82,1.86 c4.4,1.62 9.18,1.7600000000000002 13.870000000000001,1.8800000000000001 c9.11,0.24000000000000002 18.25,0.47000000000000003 27.29,-0.6500000000000001 c4.06,-0.51 8.13,-1.28 12.21,-1.05 c10.41,0.5900000000000001 19.46,7.71 25.62,16.13 s10.08,18.23 15.13,27.35 c4.21,7.6 9.23,14.78 12.82,22.69 c3.18,7 5.19,14.52 7.18,22 l5.13,19.19 a25.58,25.58 0 0 1 1.26,8.51 c-0.26,3.07 -1.62,5.93 -3,8.66 A164.12,164.12 0 0 1 943,461.8600036621094 c-10.79,13.23 -23.89,25.16 -30.3,41 c-2.5,6.17 -3.89,12.73 -5.16,19.27 a707.94,707.94 0 0 0 -10.9,79.15 a174.2,174.2 0 0 0 -36.52,-12.21 a177.61,177.61 0 0 0 -19,-3 c-5.59,-0.5800000000000001 -12.8,0.52 -18.12,-1 c-8.9,-2.5300000000000002 -9.88,-17.58 -11.23,-25.46 c-2.16,-12.55 -2.59,-25.32 -2.67,-38 C809,507.19000366210935 809.45,492.80000366210936 808.68,478.43000366210936 z" fill="#242424" id="svg_182" class="" fill-opacity="1"/><path d="M613.23,424.20000366210934 c4.21,24 8.85,48.07 18,70.62 c-0.23,0.22000000000000003 -0.46,0.42000000000000004 -0.6900000000000002,0.6200000000000001 c-0.81,0.6900000000000002 -1.6500000000000001,1.34 -2.5300000000000002,2 c-2.05,1.44 -4.3,2.66 -6,4.54 a8,8 0 0 0 -1.5,2.45 a5.48,5.48 0 0 0 0,4.47 c-4.77,2.11 -10.31,1.46 -15.66,1.26 c-4.61,-0.17 -9.08,0 -12.78,2.5300000000000002 c-5.14,3.54 -6.69,10.34 -7.52,16.52 q-0.46,3.38 -0.79,6.77 q-0.32000000000000006,3.15 -0.52,6.32 a188.61,188.61 0 0 0 -0.19000000000000003,21 q0.08000000000000002,1.92 0.21000000000000002,3.84 c-16.34,-0.39000000000000007 -31.23,-8.91 -45.32,-17.19 c-3.22,-1.8900000000000001 -6.54,-3.88 -8.63,-7 A15.8,15.8 0 0 1 527,532.6600036621094 c0,-0.51 0.09000000000000002,-1 0.16000000000000003,-1.52 a41.58,41.58 0 0 1 2.29,-8.68 a107.2,107.2 0 0 1 19.19,-32.65 c3.58,-4.18 7.61,-8.27 9.28,-13.52 c0.7300000000000001,-2.29 1,-4.72 1.7400000000000002,-7 c3.3200000000000003,-9.88 15.3,-14.55 19.4,-24.14 c1,-2.29 1.46,-4.8 2.7,-7 a17.63,17.63 0 0 1 4.25,-4.75 c0.7300000000000001,-0.6100000000000001 1.49,-1.2 2.24,-1.79 q10.54,-8.26 20.31,-17.45 q1.82,-1.71 3.6,-3.46 A59.48,59.48 0 0 0 613.23,424.20000366210934 z" fill="#242424" id="svg_183" class="" fill-opacity="1"/><path d="M714,353.2200036621094 c-1.44,1.52 -3,2.95 -4.53,4.37 l-0.41000000000000003,0.37000000000000005 l-1.62,1.5 a39,39 0 0 0 -7.55,8.79 l-0.17,0.28 c-5.1,9.13 -3.21,20.37 -1.79,30.74 a261.55,261.55 0 0 1 2.37,39 c-0.26,18 -2.38,35.88 -2.42,53.86 c0,4.08 0.09000000000000002,8.15 0.27,12.23 c0.29000000000000004,6.63 0.79,13.25 1.3900000000000001,19.87 c0.6500000000000001,7.26 1.4300000000000002,14.51 2.16,21.76 c0.5800000000000001,5.61 1.13,11.21 1.59,16.81 c0.23,2.9 0.45,5.79 0.6300000000000001,8.69 c0.21000000000000002,3.4 0.38000000000000006,6.8100000000000005 0.48000000000000004,10.21 h0 c0.07,2.16 0.11000000000000001,4.3100000000000005 0.11000000000000001,6.47 c0,1.23 0,2.45 0,3.67 q0,3.51 -0.19000000000000003,7 q-0.2,4.49 -0.6100000000000001,9 c-0.31000000000000005,3.27 -0.8600000000000001,6.84 -3.16,9.14 c-0.14,0.14 -0.29000000000000004,0.27 -0.44000000000000006,0.4 l-3.24,-0.4 a332.72,332.72 0 0 0 -67.3,-1.2 c0.49000000000000005,-3.38 0.9400000000000001,-6.75 1.3800000000000001,-10.14 c0.2,-1.6 0.4,-3.21 0.5900000000000001,-4.82 q0.33000000000000007,-2.7600000000000002 0.6300000000000001,-5.52 c0.23,-2 0.44000000000000006,-4 0.6400000000000001,-6 q0.78,-7.73 1.37,-15.47 q0.8700000000000001,-11.29 1.32,-22.62 q0.22000000000000003,-5.41 0.3400000000000001,-10.83 q0.17,-6.72 0.16000000000000003,-13.45 q0,-6.54 -0.11000000000000001,-13.1 c0,-1.44 -0.06000000000000001,-2.88 -0.18000000000000002,-4.3100000000000005 a27.35,27.35 0 0 0 -0.53,-3.83 a49.87,49.87 0 0 0 -3,-8.48 c-0.22000000000000003,-0.52 -0.43000000000000005,-1 -0.6400000000000001,-1.55 c-0.12000000000000001,-0.27 -0.23,-0.55 -0.3400000000000001,-0.8200000000000001 c5.76,-5.13 9.86,-12 13.8,-18.76 c6.39,-10.89 12.93,-22.26 14,-34.84 s-5.18,-26.71 -17.2,-30.55 c-3.27,-1 -6.73,-1.28 -10.1,-1.87 c-3.18,-0.56 -9.81,-1.83 -13.49,-4.11 q-3,3.08 -6,6.05 a22.15,22.15 0 0 1 2.17,-8.71 l1.42,0.07 a2.71,2.71 0 0 1 -0.16000000000000003,-1 c0,-1.07 0.7400000000000001,-2.2800000000000002 2.3200000000000003,-3.62 c4.71,-4 12.12,-4.890000000000001 15.09,-10.3 c1.24,-2.25 1.45,-4.93 2.45,-7.29 c2.87,-6.73 11.11,-9.21 16.07,-14.59 s6.2,-13 10.21,-19 a28.62,28.62 0 0 1 12,-10 c0.4,-0.19000000000000003 0.81,-0.38000000000000006 1.22,-0.55 c8.3,-3.55 18.16,-4.36 26.76,-4.34 c3.34,0 12,0.1 16.24,1.79 a5.32,5.32 0 0 1 1.85,1.13 C724.37,339.2700036621094 717.34,349.6600036621094 714,353.2200036621094 z" fill="#242424" id="svg_184" class="" fill-opacity="1"/><path d="M614.72,401.35000366210943 a60.88,60.88 0 0 1 46.74,4.87 c7.2,4 13.66,9.58 17.62,16.78 c5.95,10.8 5.69,23.82 5.27,36.15 c-0.21000000000000002,6.17 -0.48000000000000004,12.56 -3.2,18.1 C678,483.6600036621094 672.06,488.06000366210935 666,491.6600036621094 a42.24,42.24 0 0 1 -12.32,5.33 c-6.72,1.46 -13.7,0.22000000000000003 -20.47,-1 c-7.36,-1.36 -15.26,-3 -20.37,-8.48 c-3,-3.18 -4.640000000000001,-7.3100000000000005 -6.26,-11.35 q-3.49,-8.75 -7,-17.48 c-4.05,-10.11 -5.42,-18.52 -0.07,-28.37 c2.43,-4.49 5.4,-8.69 7.8,-13.21 C608.51,414.80000366210936 612.81,401.94000366210935 614.72,401.35000366210943 z" fill="#242424" id="svg_185" class="" fill-opacity="1"/><path d="M1035,574.2200036621093 v29.9 a167.3,167.3 0 0 1 -64.73,12.8 H700.58 c-0.14,0.14 -0.29000000000000004,0.27 -0.44000000000000006,0.4 l-3.24,-0.4 H217.17 c-40.25,0 -77.55,-10.86 -108.14,-29.36 V541.9100036621094 l230.72,-26.63 l0.18000000000000002,0 L474.29,526.6600036621094 l34.77,3 l18.06,1.53 l37.38,3.17 l19.23,1.6300000000000001 l28,2.38 l3.94,0.33000000000000007 l20.18,1.71 L663.23,542.6600036621094 l38.5,3.26 l64.18,5.45 l45.15,3.83 l74.14,6.29 l14.1,1.19 l1.52,0.13 l1.32,0.11000000000000001 l18.62,1.58 l20.44,1.7400000000000002 l2.37,0.2 z" fill="#242424" id="svg_186" class="" fill-opacity="1"/><polygon points="764 573.12 474.86 523.77 463.65 580.46 596.19 596.33 637 601.44 749.26 579.33 764 573.12" fill="#6d6d6d" id="svg_187" class="" fill-opacity="1"/><path d="M614.33,598.6000036621094 l144.86,-27.23 a5,5 0 0 1 5.94,4.93 h0 a5,5 0 0 1 -4.09,4.93 L619.57,607.7200036621093 z" fill="#6d6d6d" id="svg_188" class="" fill-opacity="1"/><path d="M677.17,512.9700036621093 c4.51,-0.42000000000000004 9.08,-1.13 13.14,-3.13 c5,-2.49 8.89,-6.78 13.52,-9.94 c10.18,-7 23.8,-7.94 35.47,-3.92 s21.41,12.63 28.23,22.91 c4.53,6.85 7.93,15.59 4.73,23.15 a30.51,30.51 0 0 1 -4.12,6.44 l-8.34,10.9 a29,29 0 0 1 -5.66,6.09 c-3.12,2.27 -7,3.2 -10.82,3.7600000000000002 c-10.15,1.48 -20.48,0.6400000000000001 -30.71,1.32 c-17.57,1.17 -34.73,6.83 -52.34,6.640000000000001 c-10.12,-0.11000000000000001 -20.11,-2.15 -30,-4.19 l-43.77,-9 c-7.62,-1.56 -16.23,-3.84 -19.82,-10.75 c-1.61,-3.11 -1.9100000000000001,-6.71 -2.1,-10.21 c-0.52,-9.64 0,-20.36 6.68,-27.31 c6.28,-6.52 16.21,-8.58 23.71,-13.4 c9.18,-5.91 12.21,-4 21.89,0.44000000000000006 A120,120 0 0 0 677.17,512.9700036621093 z" fill="#ae6e79" id="svg_189"/><path d="M677.17,512.9700036621093 c4.51,-0.42000000000000004 9.08,-1.13 13.14,-3.13 c5,-2.49 8.89,-6.78 13.52,-9.94 c10.18,-7 23.8,-7.94 35.47,-3.92 s21.41,12.63 28.23,22.91 c4.53,6.85 7.93,15.59 4.73,23.15 a30.51,30.51 0 0 1 -4.12,6.44 l-8.34,10.9 a29,29 0 0 1 -5.66,6.09 c-3.12,2.27 -7,3.2 -10.82,3.7600000000000002 c-10.15,1.48 -20.48,0.6400000000000001 -30.71,1.32 c-17.57,1.17 -34.73,6.83 -52.34,6.640000000000001 c-10.12,-0.11000000000000001 -20.11,-2.15 -30,-4.19 l-43.77,-9 c-7.62,-1.56 -16.23,-3.84 -19.82,-10.75 c-1.61,-3.11 -1.9100000000000001,-6.71 -2.1,-10.21 c-0.52,-9.64 0,-20.36 6.68,-27.31 c6.28,-6.52 16.21,-8.58 23.71,-13.4 c9.18,-5.91 12.21,-4 21.89,0.44000000000000006 A120,120 0 0 0 677.17,512.9700036621093 z" opacity="0.05" id="svg_190" class=""/><path d="M852.94,499.2600036621094 c-12.28,4.75 -24.63,9.52 -37.49,12.35 c-21.56,4.75 -44.12,4 -65.51,9.43 c-11.3,2.88 -22.53,7.52 -34.14,6.58 c-5.19,-0.42000000000000004 -10.2,-2 -15.25,-3.2 c-28.37,-7 -60.62,-4.73 -83.66,13.27 c-7.88,6.15 -14.33,13.82 -20.18,22 a14.7,14.7 0 0 0 5.91,21.88 A86.62,86.62 0 0 0 631,589.1400036621094 c13.13,1.1600000000000001 26.32,-0.7000000000000001 39.38,-2.56 c19.38,-2.75 38.77,-5.51 58.1,-8.6 c6.94,-1.11 13.88,-2.26 20.86,-3.14 c50.23,-6.35 101.37,1.37 151.73,-3.93 c5.09,-0.54 10.27,-1.24 14.9,-3.41 c11.72,-5.5 17.52,-20 15.1,-32.74 s-11.76,-23.33 -23,-29.83 c-9.42,-5.47 -19.58,-7.68 -30.07,-10 C868.26,492.6600036621094 862.32,495.6600036621094 852.94,499.2600036621094 z" fill="#ae6e79" id="svg_191" class="" opacity="1" stroke-width="1"/><path d="M960.67,423.10000366210943 c5.54,7.26 6.72,17 6.12,26.09 s-2.7600000000000002,18.08 -3.08,27.21 c-0.44000000000000006,12.52 2.58,25 2.07,37.48 c-0.36000000000000004,8.73 -2.43,17.29 -4.88,25.67 c-2.89,9.89 -7.07,20.52 -16.2,25.27 c-12.12,6.3100000000000005 -37.54,2.7600000000000002 -50.29,7.7 c1.1600000000000001,-7.23 12.28,-17.7 13.44,-24.93 c0.8,-5 1.61,-10.14 0.7500000000000001,-15.15 c-1.1,-6.39 -4.85,-12.06 -9.3,-16.78 c-7.08,-7.51 -16.32,-13.16 -26.47,-15 s-35,-0.33000000000000007 -43.12,6.08 c-1,-6.62 17.6,-13 24.14,-14.43 c3.26,-0.7300000000000001 7,-0.32000000000000006 9.61,-2.39 c5,-3.92 1.37,-11.73 1.61,-18 c0.19000000000000003,-5 3.11,-9.58 3.7,-14.58 c1,-8 -4.22,-16.15 -2.17,-24 c0.7600000000000001,-2.9 2.45,-5.45 3.62,-8.21 c3.56,-8.45 2,-18.09 0.1,-27.07 c-1.18,-5.640000000000001 -2.33,-12 0.81,-16.81 c2.91,-4.49 11.17,11.5 16.46,10.76 c17.47,-2.45 33.28,-15.4 47.39,-4.8 c7.19,5.4 8.13,11 11,18.71 C948.77,413.2600036621094 956,417.0200036621094 960.67,423.10000366210943 z" opacity="0.1" id="svg_192"/><path d="M963.67,423.10000366210943 c5.54,7.26 6.72,17 6.12,26.09 s-2.7600000000000002,18.08 -3.08,27.21 c-0.44000000000000006,12.52 2.58,25 2.07,37.48 c-0.36000000000000004,8.73 -2.43,17.29 -4.88,25.67 c-2.89,9.89 -7.07,20.52 -16.2,25.27 c-12.12,6.3100000000000005 -37.54,2.7600000000000002 -50.29,7.7 c1.1600000000000001,-7.23 12.28,-17.7 13.44,-24.93 c0.8,-5 1.61,-10.14 0.7500000000000001,-15.15 c-1.1,-6.39 -4.85,-12.06 -9.3,-16.78 c-7.08,-7.51 -16.32,-13.16 -26.47,-15 s-35,-0.33000000000000007 -43.12,6.08 c-1,-6.62 17.6,-13 24.14,-14.43 c3.26,-0.7300000000000001 7,-0.32000000000000006 9.61,-2.39 c5,-3.92 1.37,-11.73 1.61,-18 c0.19000000000000003,-5 3.11,-9.58 3.7,-14.58 c1,-8 -4.22,-16.15 -2.17,-24 c0.7600000000000001,-2.9 2.45,-5.45 3.62,-8.21 c3.56,-8.45 2,-18.09 0.1,-27.07 c-1.18,-5.640000000000001 -2.33,-12 0.81,-16.81 c2.91,-4.49 8.6,-6.19 13.89,-6.94 a68.42,68.42 0 0 1 50,12.9 c7.19,5.4 8.13,11 11,18.71 C951.77,413.2600036621094 959,417.0200036621094 963.67,423.10000366210943 z" fill="#242424" id="svg_193" class="" fill-opacity="1"/><path d="M302,375.7200036621093 L356.37,576.6600036621094 a12.55,12.55 0 0 0 10.91,9.21 L612,609.3800036621094 a12.54,12.54 0 0 0 13.38,-15.48 L565.84,351.5200036621094 a12.54,12.54 0 0 0 -13.12,-9.51 L313.13,359.93000366210936 A12.54,12.54 0 0 0 302,375.7200036621093 z" fill="#6d6d6d" id="svg_194" class="" fill-opacity="1"/><ellipse cx="787.1099853515625" cy="387.67999267578125" rx="26.899999618530273" ry="27.25" fill="#fff" id="svg_195"/><path d="M809.2,337.9700036621094 s5.67,16.86 -11.06,23.95 L796,365.6600036621094 l10.48,10.34 S819.4,352.43000366210936 818,344.06000366210935 C818,344.06000366210935 816,335.56000366210935 809.2,337.9700036621094 z" fill="#fff" id="svg_196"/><circle cx="790.2000122070312" cy="388.989990234375" r="25.940000534057617" fill="#919191" id="svg_197" class="" fill-opacity="1"/><path d="M818.13,347.8900036621094 l-4.12,-6.8 l-6,-0.8500000000000001 c1.28,-22.39 -4.53,-29.06 -4.53,-29.06 l-1.35,-0.13 l-5.88,-0.5700000000000001 l-11.06,-11.48 v-3.26 c15.54,1.85 24.13,9.23 28.77,17.88 C822.16,328.80000366210936 818.13,347.8900036621094 818.13,347.8900036621094 z" fill="#919191" id="svg_198" class="" fill-opacity="1"/><path d="M802.18,306.93000366210936 v4.12 l-5.88,-0.5700000000000001 l-11.06,-11.48 S802.35,302.8300036621094 802.18,306.93000366210936 z" stroke="#4c4981" stroke-miterlimit="10" opacity="0.1" id="svg_199"/><path d="M818.13,347.8900036621094 l-4.12,-6.8 V313.6600036621094 C822.16,328.80000366210936 818.13,347.8900036621094 818.13,347.8900036621094 z" stroke="#4c4981" stroke-miterlimit="10" opacity="0.1" id="svg_200" class="" fill="#919191" fill-opacity="1"/><ellipse cx="571.4400024414062" cy="824.8400268554688" rx="14.430000305175781" ry="26.31999969482422" transform="rotate(-30 -185.66999816894545,306.64001464843744) " fill="#fff" id="svg_201"/><path d="M733,374.6600036621094 c7.27,12.59 16.19,21 9.29,25 s-27,2 -34.27,-10.6 s-0.6700000000000002,-30 6.23,-34 S725.72,362.04000366210937 733,374.6600036621094 z" fill="#919191" id="svg_202" class="" fill-opacity="1"/><path d="M797.73,283.9600036621094 c0,40.23 -27.53,79 -67.76,79 a72.85,72.85 0 0 1 0,-145.7 C770.2,217.30000366210936 797.73,243.72000366210938 797.73,283.9600036621094 z" opacity="0.1" id="svg_203" class=""/><circle cx="729.969970703125" cy="288.1499938964844" r="72.8499984741211" fill="#ae6e79" id="svg_204" class=""/><path d="M723.57,255.87000366210935 c8.67,3.19 13.8,12.15 21.58,17.14 c11,7 25.32,5.19 37.88,1.73 c7,-1.9100000000000001 14.32,-4.24 21.21,-2.12 a6,6 0 0 0 3.23,0.46 c1.5,-0.43000000000000005 2.24,-2.09 2.73,-3.5700000000000003 c8.52,-25.4 4.69,-54.17 -8.17,-77.67 c-3.3200000000000003,-6.06 -7.3,-11.92 -12.78,-16.13 c-4.32,-3.31 -9.4,-5.48 -14.52,-7.33 a145,145 0 0 0 -28.88,-7.13 a17.94,17.94 0 0 0 -5.27,-0.17 c-2.41,0.39000000000000007 -4.57,1.6900000000000002 -6.72,2.85 A68.78,68.78 0 0 1 704,172.04000366210937 c-14,0.53 -30,-2.77 -40.79,6.21 c-13,10.77 -9.76,31.78 -18.19,46.4 c-5.58,9.67 -16.34,16.69 -18.11,27.7 a25.57,25.57 0 0 0 0.6300000000000001,10.07 c4.12,16.94 20.52,30.06 38,30.37 a14.42,14.42 0 0 0 7.76,-1.59 a17.55,17.55 0 0 0 4.09,-3.89 C688.84,273.75000366210935 701.94,247.91000366210938 723.57,255.87000366210935 z" fill="#242424" id="svg_205" class="" fill-opacity="1"/><path d="M810.2,262.1400036621094 c-0.49000000000000005,1.48 -1.23,3.14 -2.73,3.5700000000000003 a6,6 0 0 1 -3.23,-0.46 c-6.890000000000001,-2.12 -14.25,0.21000000000000002 -21.2,2.12 c-12.57,3.46 -26.92,5.3100000000000005 -37.88,-1.73 c-7.79,-5 -12.91,-14 -21.59,-17.14 c-21.63,-8 -34.73,17.88 -46.21,31.44 a17.55,17.55 0 0 1 -4.09,3.89 a14.42,14.42 0 0 1 -7.76,1.59 c-17.42,-0.31000000000000005 -33.83,-13.43 -38,-30.37 c-0.23,-1 -0.43000000000000005,-2 -0.5800000000000001,-3 c0,0.09000000000000002 0,0.17 -0.05000000000000001,0.26 a25.57,25.57 0 0 0 0.6300000000000001,10.07 c4.12,16.94 20.53,30.06 38,30.37 a14.42,14.42 0 0 0 7.76,-1.59 a17.55,17.55 0 0 0 4.09,-3.89 c11.48,-13.56 24.58,-39.4 46.21,-31.44 c8.68,3.19 13.8,12.15 21.59,17.14 c11,7 25.31,5.19 37.88,1.73 c7,-1.9100000000000001 14.31,-4.24 21.2,-2.12 a6,6 0 0 0 3.23,0.46 c1.5,-0.43000000000000005 2.24,-2.09 2.73,-3.5700000000000003 a90.29,90.29 0 0 0 4.48,-32.26 A88.8,88.8 0 0 1 810.2,262.1400036621094 z" opacity="0.1" id="svg_206"/></g></svg>